<svg width="10%" 
   height="10%"
   viewBox="0 0 800 600" xmlns="http://www.w3.org/2000/svg">
 <title>Home</title>
 <g id="Layer_1">
  <title>Layer 1</title>
  <line id="svg_1" y2="350" x2="171" y1="214" x1="171" stroke-width="10" stroke="#000" fill="none"/>
  <line id="svg_2" y2="352" x2="581" y1="350" x1="171" stroke-width="10" stroke="#000" fill="none"/>
  <line stroke="#000" id="svg_3" y2="219" x2="582" y1="352" x1="581" stroke-width="10" fill="none"/>
  <line id="svg_4" y2="216" x2="181" y1="217" x1="582" stroke-width="10" stroke="#000" fill="none"/>
  <line id="svg_5" y2="216" x2="588" y1="71" x1="384" stroke-width="10" stroke="#000" fill="none"/>
  <line id="svg_6" y2="215" x2="174" y1="73" x1="382" stroke-width="10" stroke="#000" fill="none"/>
  <path d="m294,250c0,1 0,5 0,6c0,3 0,7 0,11c0,4 0,8 0,12c0,3 0,6 0,9c0,3 0,5 0,7c0,2 0,4 0,6c0,3 0,5 0,7c0,1 -0.70709,2.29291 0,3c0.70709,0.70709 3,0 12,0c6,0 12,0 16,0c4,0 9,1 15,1c9,0 17,0 24,0c5,0 8.92578,0.49756 14,1c5.97079,0.59122 12,0 19,0c6,0 10.94672,0.49875 18,1c6.98239,0.49622 11,0 14,0c3,0 7,0 11,0c3,0 5,0 6,0c2,0 3,0 4,0c1,0 1.29291,-0.29291 2,-1c0.70709,-0.70709 0.4588,-1.69345 1,-3c0.76538,-1.84775 0.48627,-4.82376 1,-7c0.4595,-1.9465 0,-6 0,-10c0,-8 0,-14 0,-18c0,-5 0,-9 0,-13c0,-3 0,-6 0,-8c0,-2 0,-3 0,-4c0,-1 0.70709,-2.29289 0,-3c-0.70709,-0.70711 -4,0 -10,0c-9,0 -15,0 -21,0c-6,0 -11,0 -15,0c-6,0 -13,0 -20,-1c-7,-1 -12,-1 -17,-1c-5,0 -10,0 -13,0c-3,0 -6.92578,-0.49756 -12,-1c-4.97568,-0.49269 -10,0 -14,0c-2,0 -5,0 -8,0c-3,0 -6,0 -9,0c-2,0 -5,0 -8,0c-2,0 -4,0 -5,0l-1,0" id="svg_7" stroke-width="10" stroke="#000" fill="none"/>
 </g>
</svg>