<svg width="10%" 
   height="10%"
   viewBox="0 0 800 600" xmlns="http://www.w3.org/2000/svg">
 <title>Next</title>

 <g>
  <title>Layer 1</title>
  <path id="svg_5" d="m62,272" opacity="NaN" stroke="#000" fill="none"/>
  <line transform="rotate(0.671062 415.5 256)" stroke="#000" stroke-width="10" id="svg_6" y2="253" x2="654.99998" y1="259" x1="176" fill="none"/>
  <path d="m652,249c-2,0 -4.77344,-2.48947 -13,-6c-13.67316,-5.83476 -32.78302,-12.69519 -51,-18c-15.83472,-4.61108 -33.96948,-9.11737 -53,-14c-19.96875,-5.12335 -44.07111,-8.46774 -61,-11c-11.05731,-1.65398 -16,-2 -18,-2c-1,0 -3,-2 -3,-1c0,1 7.02829,-0.62863 14,0c11.13516,1.00406 28.01257,2.88383 47,5c17.0119,1.896 27,2 32,3c5,1 11.84741,2.62932 23,5c12.86548,2.7348 21.92487,5.28473 29,7c4.95544,1.20139 10,2 12,3c2,1 3.797,1.2565 5,2c2.69,1.66251 4.88153,2.19028 8,4c1.93402,1.12234 3.88153,3.19028 7,5c1.93402,1.12234 2.18604,1.69255 4,3c1.14728,0.8269 3.88855,4.19409 9,7c3.92029,2.15204 5.69342,4.4588 7,5c0.92389,0.38269 2.29291,0.29289 3,1c0.70709,0.70711 0.08246,2.05664 -2,5c-2.88788,4.0817 -7.81183,10.19556 -13,15c-6.76459,6.26422 -13.53149,11.73138 -21,16c-8.55078,4.88718 -15.80243,8.43289 -22,11c-2.92157,1.21014 -6,2 -10,4c-4,2 -6.80566,3.44839 -11,5c-3.867,1.43048 -9.0769,2.73145 -13,4c-5.12396,1.65686 -12.08905,2.59723 -22,5c-7.07513,1.71527 -11,3 -14,3c-1,0 -2.05353,0.5405 -4,1c-2.17627,0.51373 -4.29291,0.29291 -5,1c-0.70709,0.70709 1,1 4,1c9,0 19.03748,0.90729 30,0c12.12408,-1.00342 19.09662,-3.53375 25,-5c3.06903,-0.76227 6.07843,-2.78986 9,-4c4.13171,-1.71143 7.37201,-2.3851 11,-5c2.29456,-1.65381 6.07843,-3.78986 9,-5c4.13171,-1.71143 7.31,-3.33749 10,-5c2.40601,-1.487 3.7464,-4.16119 7,-9c2.78992,-4.14923 6.19031,-7.88153 8,-11c1.12231,-1.93399 2.78986,-5.07843 4,-8c0.85571,-2.06586 1.41888,-5.41885 3,-7c1.58112,-1.58115 2.69342,-4.4588 4,-5c0.92389,-0.38269 1.29291,-1.29289 2,-2c0.70709,-0.70711 1,-2 2,-3l0,-1" id="svg_7" stroke-width="10" stroke="#000" fill="none"/>
 </g>
</svg>