<svg width="10%" 
   height="10%" 
   viewBox="0 0 800 600" xmlns="http://www.w3.org/2000/svg">
 <title>Previous</title>
 <g id="Layer_1">
  <title>Layer 1</title>
  <line id="svg_3" y2="274" x2="628" y1="274" x1="186" stroke-width="10" stroke="#000" fill="none"/>
  <path d="m186,266c1,0 4.10762,-0.61038 12,-3c14.2282,-4.30795 31.258,-7.9167 46,-12c14.32666,-3.96825 28.12268,-9.64925 40,-14c10.11319,-3.70454 17.17572,-6.60703 22,-9c5.22363,-2.59106 9.186,-4.69255 11,-6c1.14728,-0.8269 2.85272,-3.1731 4,-4c1.814,-1.30745 1,-1 0,-1c-2,0 -9.02667,0.92117 -18,4c-17.05197,5.85066 -28.86591,10.39 -40,14c-6.9252,2.24536 -17.25056,2.89163 -24,5c-4.26871,1.33345 -8.90779,3.49623 -13,4c-1.98502,0.24437 -6,1 -8,2c-2,1 -3.31001,1.33749 -6,3c-2.40601,1.487 -6.21167,3.71413 -9,6c-3.28101,2.68979 -5.1731,4.85272 -6,6c-1.30745,1.814 -1.61731,2.07611 -2,3c-0.5412,1.30655 -3.37201,0.3851 -7,3c-2.29454,1.65381 -3.29289,3.29291 -4,4c-0.70711,0.70709 -2,0 -2,1c0,1 1.07843,0.78986 4,2c2.06586,0.85571 4.07843,1.78986 7,3c4.13171,1.71143 6.82375,4.48627 9,5c0.97325,0.22977 1.07613,0.61731 2,1c1.30656,0.5412 1.9183,2.11215 6,5c2.94336,2.08246 9,6 15,9c6,3 10.19075,5.42215 14,7c5.3871,2.23141 8.88855,5.19409 14,8c7.84061,4.30408 16.08878,7.82715 24,12c9.10651,4.80331 15.6113,7.89682 24,11c3.867,1.43048 7.15225,2.23462 9,3c1.30655,0.5412 3.29291,0.29291 4,1c0.70709,0.70709 2,2 2,1c0,-1 -5.26599,-0.13901 -13,-3c-12.58304,-4.65479 -21,-10 -29,-14c-6,-3 -9.74673,-5.37134 -14,-8c-1.9021,-1.17557 -5.74675,-4.37134 -10,-7c-5.70634,-3.5267 -10.31001,-4.33749 -13,-6c-2.40601,-1.487 -4.07843,-2.78986 -7,-4c-6.19757,-2.56711 -9.88152,-5.19028 -13,-7c-1.93399,-1.12234 -4,-3 -7,-4c-3,-1 -5.93414,-3.14429 -8,-4c-2.92157,-1.21014 -3,-2 -4,-3l-1,0" id="svg_4" stroke-width="10" stroke="#000" fill="none"/>
 </g>
</svg>